<svg xmlns="http://www.w3.org/2000/svg" 
     width="1200" 
     height="1200" 
     viewBox="0 0 1200 1200">
    <path d="M 880 574 L 972 415 C 979.859375 400.035156 974.507812 381.539062 959.875 373.082031 C 945.242188 364.625 926.542969 369.222656 917.5 383.5 L 823.5 545.5 C 680.679688 484.8125 519.320312 484.8125 376.5 545.5 L 282.5 383.5 C 273.457031 369.222656 254.757812 364.625 240.125 373.082031 C 225.492188 381.539062 220.140625 400.035156 228 415 L 320 574 C 165.203125 662.730469 64.171875 822.140625 50 1000 L 1150 1000 C 1135.828125 822.140625 1034.796875 662.730469 880 574 Z M 350 862.5 C 315.480469 862.5 287.5 834.519531 287.5 800 C 287.5 765.480469 315.480469 737.5 350 737.5 C 384.519531 737.5 412.5 765.480469 412.5 800 C 412.5 834.519531 384.519531 862.5 350 862.5 Z M 850 862.5 C 815.480469 862.5 787.5 834.519531 787.5 800 C 787.5 765.480469 815.480469 737.5 850 737.5 C 884.519531 737.5 912.5 765.480469 912.5 800 C 912.5 834.519531 884.519531 862.5 850 862.5 Z M 850 862.5 "/>
</svg>
